PathFileType	4	(X/Y/Z)	C:\Users\Basilio\Documents\Thesis Gigler\squatting_fais\c3dfiles\019\SLS_back_pre2\markers_experimental.trc
DataRate	CameraRate	NumFrames	NumMarkers	Units	OrigDataRate	OrigDataStartFrame	OrigNumFrames
200.000000	200.000000	4	59	mm	200.000000	0	1482
Frame#	Time	FHD			LBHD			RBHD			C7			T10			CLAV			LSHO			LUUPA			LMUPA			LDUPA			LLEP			LMEP			LRAD			LUL			LRFIN			RSHO			RUPA1			RMUPA			RDUPA			RLEP			RMEP			RRAD			RUL			RUFIN			LASI			RASI			USACR			LSACR			RSACR			LTHI1			LTHI2			LTHI3			LTHI4			LLFC			LTIB1			LTIB2			LTIB3			LTIB4			LLMAL			LMMAL			LHEE			LMT1			LMT2			LMT5			RTHI			RTHI2			RTHI3			RTHI4			RLFC			RTIB1			RTIB2			RTIB3			RTIB4			RLMAL			RMMAL			RHEE			RMT1			RMT2			RMT5			
		X1	Y1	Z1	X2	Y2	Z2	X3	Y3	Z3	X4	Y4	Z4	X5	Y5	Z5	X6	Y6	Z6	X7	Y7	Z7	X8	Y8	Z8	X9	Y9	Z9	X10	Y10	Z10	X11	Y11	Z11	X12	Y12	Z12	X13	Y13	Z13	X14	Y14	Z14	X15	Y15	Z15	X16	Y16	Z16	X17	Y17	Z17	X18	Y18	Z18	X19	Y19	Z19	X20	Y20	Z20	X21	Y21	Z21	X22	Y22	Z22	X23	Y23	Z23	X24	Y24	Z24	X25	Y25	Z25	X26	Y26	Z26	X27	Y27	Z27	X28	Y28	Z28	X29	Y29	Z29	X30	Y30	Z30	X31	Y31	Z31	X32	Y32	Z32	X33	Y33	Z33	X34	Y34	Z34	X35	Y35	Z35	X36	Y36	Z36	X37	Y37	Z37	X38	Y38	Z38	X39	Y39	Z39	X40	Y40	Z40	X41	Y41	Z41	X42	Y42	Z42	X43	Y43	Z43	X44	Y44	Z44	X45	Y45	Z45	X46	Y46	Z46	X47	Y47	Z47	X48	Y48	Z48	X49	Y49	Z49	X50	Y50	Z50	X51	Y51	Z51	X52	Y52	Z52	X53	Y53	Z53	X54	Y54	Z54	X55	Y55	Z55	X56	Y56	Z56	X57	Y57	Z57	X58	Y58	Z58	X59	Y59	Z59	

1	0	-208.5849761962891	1705.038330078125	-632.6453857421876	-339.4858093261719	1685.1484375	-775.4145507812502	-341.9234313964844	1671.466186523438	-636.0206298828126	-375.6217651367188	1501.72802734375	-712.5322875976564	-412.5783996582032	1208.199096679688	-733.2798461914064	-244.2576293945313	1448.018432617188	-717.2073974609376	-300.7498168945313	1494.954711914063	-874.637878417969	-302.1468200683594	1324.842407226563	-945.4207153320315	-272.7441101074219	1294.4658203125	-920.6560668945315	-301.0418090820313	1258.819213867188	-960.0286865234377	-341.2111511230469	1182.1435546875	-973.6865234375002	-366.6969604492188	1164.540405273438	-918.6670532226565	-206.7199096679688	962.4932861328127	-975.2454223632815	-267.9187011718751	952.498962402344	-1001.082275390625	-180.535385131836	897.145690917969	-1003.197143554688	-300.1784973144532	1465.589965820313	-566.5418090820314	-334.0616455078126	1275.996704101563	-484.4472656250001	-293.3010253906251	1259.123413085938	-499.9587402343751	-320.8645019531251	1207.959106445313	-481.4048461914064	-305.2924194335938	1136.721313476563	-483.3479309082032	-347.3768310546876	1127.224365234375	-524.5467529296876	-170.3492279052735	929.4289550781252	-535.2619628906251	-208.1390075683594	910.186950683594	-482.7151794433595	-133.9031372070313	858.408874511719	-514.7199707031251	-244.6673278808594	1013.322021484375	-855.6083984375002	-240.3155059814454	1004.541442871094	-647.0628051757814	-404.4968566894532	1075.287963867188	-744.3051757812501	-409.9302978515626	1043.182250976563	-773.1216430664065	-408.0437316894532	1043.081909179688	-715.9434204101564	-266.4306945800782	753.8972167968751	-940.5679321289065	-217.5343017578126	683.0458984375001	-941.476257324219	-174.3302154541016	693.9056396484376	-924.4094238281252	-236.1627197265626	625.5131225585939	-935.224548339844	-233.1549682617188	529.8910522460939	-928.5941162109377	-213.857894897461	382.4702148437501	-905.0212402343752	-274.6205444335938	355.6144714355469	-963.5933227539065	-241.0655975341797	343.0528869628907	-938.4182128906252	-263.3295288085938	263.6534729003907	-909.246520996094	-353.0662536621094	151.3383178710938	-945.167907714844	-339.9795227050782	153.5304718017578	-864.2373657226565	-430.6187133789064	121.5797653198242	-902.091003417969	-220.7362823486329	66.91234588623048	-869.7418212890627	-217.4917144775391	64.78610992431642	-910.6502685546877	-263.1778869628907	48.43534469604494	-965.909118652344	-282.5610656738282	799.1732177734377	-587.3200683593751	-236.6532287597657	754.2027587890626	-599.3623657226564	-218.2871704101563	754.0874633789064	-619.5618286132814	-271.3916625976563	670.6262817382814	-602.4154052734376	-315.5041503906251	509.7832031250001	-640.2742919921876	-288.5291442871094	331.0922241210938	-713.2351074218751	-346.0225830078126	250.3686523437501	-662.4306030273439	-313.1474304199219	248.7296142578126	-696.4345092773439	-326.6641235351563	211.5620422363282	-740.3207397460939	-391.4788208007814	127.308464050293	-702.4520263671876	-377.2628479003907	137.679916381836	-777.162536621094	-458.3084716796876	106.8486480712891	-753.3959960937501	-260.1259765625001	56.23225021362306	-785.0865478515627	-250.7787017822266	52.59222412109376	-742.5614624023439	-293.0461730957032	46.9188575744629	-683.8118896484376	
2	0.005	-208.4460144042969	1704.870971679688	-632.9931030273439	-339.3557128906251	1685.096069335938	-775.7619628906252	-341.8004455566407	1671.451904296875	-636.3447875976564	-375.6322631835938	1501.679565429688	-712.9189453125001	-412.3678283691407	1208.106567382813	-733.6580810546876	-244.1270294189454	1447.995849609375	-717.5914306640626	-300.7251281738282	1494.888061523438	-875.0391235351565	-302.0331420898438	1324.762573242188	-945.7632446289065	-272.5152282714844	1294.375854492188	-920.9446411132815	-300.9348754882813	1258.718505859375	-960.3787231445315	-340.5685119628907	1181.88037109375	-974.015319824219	-366.3651428222657	1164.408325195313	-918.941345214844	-206.5020904541016	962.330261230469	-975.4744262695315	-267.6508178710938	952.3710937500002	-1001.279663085938	-180.2398834228516	896.998962402344	-1003.403076171875	-300.2219848632813	1465.539428710938	-566.8881225585939	-334.0994567871094	1275.9951171875	-484.8307189941407	-293.3638916015626	1259.024047851563	-500.3524169921876	-320.7305603027344	1207.935668945313	-481.7786865234376	-305.2854309082032	1136.590454101563	-483.7602844238282	-347.3652648925782	1127.145874023438	-524.9354248046876	-170.2408447265625	929.4866943359377	-535.9725341796876	-208.0280914306641	910.190612792969	-483.5212402343751	-133.5926361083985	858.5424804687502	-515.6095581054689	-244.2940673828126	1013.178344726563	-855.955993652344	-239.9809265136719	1004.555603027344	-647.3593139648439	-404.2343750000001	1075.267578125	-744.7019653320314	-409.6294555664064	1043.142456054688	-773.4543457031252	-407.7381896972657	1043.069702148438	-716.2640991210939	-266.7936401367188	753.6857910156251	-940.8154296875002	-218.2163391113282	682.6854858398439	-941.6843872070315	-175.0202331542969	693.3943481445314	-924.594421386719	-237.0309295654297	625.1757812500001	-935.396911621094	-234.2259216308594	529.5163574218751	-928.7390136718752	-214.6221771240235	382.1885375976563	-905.153503417969	-275.3433837890626	354.9739074707032	-963.6214599609377	-241.6757202148438	342.6509704589844	-938.442321777344	-263.6275939941407	263.1774597167969	-909.2922363281252	-353.0052490234376	150.4722137451172	-945.0054931640627	-339.8384704589844	152.7483673095703	-864.110046386719	-430.6231689453126	120.5747833251953	-901.6024169921877	-220.6886138916016	66.2049026489258	-869.5697021484377	-217.4259643554688	63.99515533447267	-910.4582519531252	-263.2108459472657	47.82836914062501	-965.7427978515627	-282.1986083984376	799.1621093750002	-587.5963745117189	-243.2584228515626	746.4031372070314	-598.8986816406251	-218.0210571289063	754.1065063476564	-619.8529052734376	-271.0512084960938	670.6295166015626	-602.6963500976564	-315.1707458496094	509.8090820312501	-640.4051513671876	-288.3669128417969	331.0519714355469	-713.2993164062501	-345.9033813476563	250.3968811035157	-662.4901123046876	-312.9927673339844	248.727767944336	-696.4564819335939	-326.6435852050782	211.5634155273438	-740.3831176757814	-391.4662475585939	127.3157043457032	-702.4580078125001	-377.2301940917969	137.7371063232422	-777.1753540039065	-458.3084716796876	106.8486480712891	-753.3959960937501	-260.1227416992188	56.23044586181642	-785.0852661132815	-250.7793273925782	52.59283828735353	-742.5614013671876	-293.0761413574219	46.88933563232423	-683.8137207031251	
3	0.01	-208.2628021240235	1704.922485351563	-633.3276977539064	-339.3647460937501	1685.097534179688	-776.1107177734377	-341.6659851074219	1671.466064453125	-636.6879882812501	-375.5583190917969	1501.641357421875	-713.3289794921876	-412.1578369140626	1208.03466796875	-734.0961914062501	-244.0921173095704	1447.975463867188	-717.9168090820314	-300.5379028320313	1494.803100585938	-875.4313964843752	-301.8258056640626	1324.659301757813	-946.111511230469	-272.3722534179688	1294.31103515625	-921.2531738281252	-300.6721191406251	1258.6337890625	-960.6617431640627	-340.3997802734376	1181.811645507813	-974.2998046875002	-366.1613159179688	1164.279418945313	-919.2326660156252	-206.2699279785157	962.2632446289065	-975.6743164062502	-267.3569335937501	952.2700195312502	-1001.547607421875	-180.0384368896485	896.9387817382815	-1003.616821289063	-300.3219909667969	1465.533325195313	-567.2894897460939	-333.9887390136719	1275.963745117188	-485.2025146484376	-293.2324523925782	1259.031616210938	-500.7460327148439	-320.8046875000001	1207.763427734375	-482.2178955078126	-305.1740722656251	1136.605224609375	-484.2691955566407	-347.3849182128907	1127.103149414063	-525.3488159179689	-170.1754913330078	929.5622558593752	-536.6843872070314	-207.6485748291016	910.378112792969	-484.2861938476564	-133.2904815673828	858.6453247070315	-516.4171142578126	-243.9044952392579	1013.096557617188	-856.2969360351565	-239.6510620117188	1004.458312988281	-647.7277221679689	-403.8880615234376	1075.1787109375	-745.0783081054689	-409.1356506347657	1043.07470703125	-773.8030395507815	-407.3872680664064	1042.9990234375	-716.6636962890626	-267.2006835937501	753.4716796875001	-941.095153808594	-218.9509277343751	682.2873535156251	-941.9254150390627	-175.6051788330078	692.8666381835939	-924.788757324219	-238.0529327392579	624.8576660156251	-935.620544433594	-235.5262298583985	529.1033935546876	-928.8848266601565	-215.5005645751954	381.8711242675782	-905.2517089843752	-275.9951477050782	354.3572082519532	-963.565856933594	-242.3860626220704	342.1515808105469	-938.4207153320315	-264.0386352539063	262.6573791503907	-909.2221679687502	-353.1726074218751	149.7013549804688	-944.7485351562502	-339.8999633789063	152.049789428711	-864.0007324218752	-430.7341308593751	119.7677078247071	-901.2587890625002	-220.5749816894532	65.68250274658205	-869.5794677734377	-217.5174713134766	63.50011444091798	-910.3582763671877	-263.2297668457032	46.91267013549805	-965.202331542969	-281.9012145996094	799.2742919921877	-587.8491821289064	-242.9067382812501	746.3695678710939	-598.8902587890626	-217.5869445800782	754.1906127929689	-620.0647583007814	-270.7211303710938	670.6828002929689	-602.9175415039064	-314.8913269042969	509.8729858398439	-640.5609741210939	-288.2394409179688	330.9863281250001	-713.3963623046876	-345.7691345214844	250.4543914794922	-662.5289306640626	-312.9249572753907	248.7437591552735	-696.5399780273439	-326.5119323730469	211.576889038086	-740.3941040039064	-391.4354248046876	127.3631896972657	-702.4531860351564	-377.2125854492188	137.7923126220703	-777.1643066406252	-458.3912658691407	106.8070907592774	-753.3947753906251	-259.7463989257813	56.01224517822267	-784.914001464844	-250.7272491455079	52.59367752075197	-742.4812011718751	-293.0761718750001	46.88934326171876	-683.8137207031251	
4	0.015	-208.1853790283204	1704.781372070313	-633.8023071289064	-339.2822875976563	1685.049560546875	-776.4771728515627	-341.5614013671876	1671.550903320313	-636.9691162109376	-375.4866943359376	1501.554321289063	-713.7846679687501	-411.8889465332032	1207.946533203125	-734.4953613281251	-244.0258941650391	1447.981567382813	-718.2998657226564	-300.4573364257813	1494.739501953125	-875.807800292969	-301.6759643554688	1324.56103515625	-946.4436035156252	-272.1679992675782	1294.225463867188	-921.598327636719	-300.5086669921876	1258.522338867188	-960.9688110351565	-340.2314147949219	1181.687744140625	-974.561706542969	-365.8815612792969	1164.17138671875	-919.5172119140627	-206.0608673095704	962.1109619140627	-975.904968261719	-267.2042541503907	952.1030273437502	-1001.761596679688	-179.850830078125	896.7510986328127	-1003.85595703125	-300.2784118652344	1465.503784179688	-567.6432495117189	-334.0373840332032	1275.875	-485.602264404297	-293.2820739746094	1258.97314453125	-501.1343078613282	-320.8276367187501	1207.693115234375	-482.628387451172	-305.2708435058594	1136.44921875	-484.7195129394532	-347.3964538574219	1127.074340820313	-525.7673339843751	-170.0523681640625	929.657409667969	-537.4328613281251	-207.5606536865235	910.1967773437502	-485.0315551757814	-133.1800384521485	858.7559204101565	-517.3445434570314	-243.4341430664063	1013.010498046875	-856.696472167969	-239.2393798828126	1004.5458984375	-648.0186767578126	-403.5655822753907	1075.144653320313	-745.4960327148439	-408.6437072753907	1042.963745117188	-774.1782836914065	-407.0787658691407	1042.994750976563	-716.9952392578126	-267.6427307128907	753.2233276367189	-941.3640747070315	-219.6803894042969	681.8757324218751	-942.1255493164065	-176.2833862304688	692.3159179687501	-924.988952636719	-238.9491119384766	624.5321655273439	-935.8428344726565	-236.8111267089844	528.7097167968751	-929.1089477539065	-216.3647460937501	381.5437622070313	-905.210144042969	-276.7100830078126	353.7544860839844	-963.5818481445315	-243.1217651367188	341.3527832031251	-938.2971801757815	-264.4845581054688	262.1837463378907	-909.1292724609377	-353.4528503417969	148.9754638671875	-944.470397949219	-340.0244140625001	151.2698364257813	-863.8318481445315	-430.8743286132814	118.9190063476563	-900.8486938476565	-220.5835876464844	65.21640777587892	-869.7009887695315	-217.7044372558594	63.07381439208986	-910.336608886719	-263.2928771972657	46.54462432861329	-965.5484619140627	-281.5382385253907	799.2595214843752	-588.1775512695314	-242.5375061035157	746.3669433593751	-599.2302246093751	-217.2459106445313	754.1479492187501	-620.3173217773439	-270.4299011230469	670.6865844726564	-603.1375732421876	-314.6499023437501	509.8224182128907	-640.7420654296876	-288.0328063964844	330.9883117675782	-713.4904785156251	-345.6688537597657	250.4453735351563	-662.5770263671876	-312.8659973144532	248.6854248046876	-696.6354370117189	-326.4436950683594	211.5647125244141	-740.4789428710939	-391.4252319335939	127.43701171875	-702.4630126953126	-377.1860351562501	137.8029479980469	-777.195495605469	-458.395477294922	106.8099594116211	-753.3900756835939	-259.7460021972657	56.00737380981447	-784.9510498046877	-250.7787017822266	52.59223556518556	-742.5614013671876	-293.0319213867188	46.8890724182129	-683.8101806640626	
